<svg width="81" height="16" viewBox="0 0 81 16" fill="none" xmlns="http://www.w3.org/2000/svg">
<path d="M2.59966 5.26723V10.0816C2.59966 11.1422 3.20726 12.04 3.9277 12.04H14.4435C15.1639 12.04 15.7715 11.1462 15.7715 10.0816V8.9535H5.6637V6.39536H18.3669V10.0816C18.3669 12.9854 16.6048 15.3489 14.4435 15.3489H3.9277C1.76204 15.3489 0 12.9854 0 10.0816V5.26723C0 2.3635 1.76204 0 3.9277 0H18.3669V3.3089H3.9277C3.20726 3.3089 2.59966 4.20266 2.59966 5.26723Z" fill="white"/>
<path d="M23.783 3.34068V6.39536H39.5502V8.9535H23.783V12.0082C23.783 12.0082 23.783 12.032 23.783 12.04H39.5502V15.3489H23.0061C21.9993 15.3489 21.1833 14.2843 21.1833 12.9734V2.37542C21.1877 1.06457 22.0036 0 23.0105 0H39.5546V3.3089H23.7873C23.7873 3.3089 23.7873 3.32876 23.7873 3.34068H23.783Z" fill="white"/>
<path d="M58.1733 0V15.3449H55.8166C54.7707 15.3449 53.2691 14.8285 52.4401 13.6924L45.3225 3.91269C45.2271 3.7816 45.1576 3.66641 45.0969 3.57107C45.0404 3.47574 45.0057 3.41218 44.9667 3.37643V15.3449H42.3713V0H44.728C45.8607 0 46.8763 0.568035 47.6618 1.65247L54.7794 11.4322C55.0181 11.7579 55.2741 11.9486 55.5693 12.0122V0H58.1646H58.1733Z" fill="white"/>
<path d="M80.5285 6.39536V8.9535H74.9386C74.1661 8.9535 73.5411 9.52551 73.5411 10.2326V15.3489H70.7462V10.2326C70.7462 9.52551 70.1212 8.9535 69.3487 8.9535H63.7588V6.39536H69.3487C70.1212 6.39536 70.7462 5.82335 70.7462 5.11629V0H73.5411V5.11629C73.5411 5.82335 74.1661 6.39536 74.9386 6.39536H80.5285Z" fill="white"/>
</svg>
