<svg width="80" height="18" viewBox="0 0 80 18" fill="none" xmlns="http://www.w3.org/2000/svg">
<path d="M2.5633 6.0136V11.5102C2.5633 12.7211 3.1624 13.746 3.87276 13.746H14.2415C14.9519 13.746 15.551 12.7256 15.551 11.5102V10.2222H5.58448V7.30159H18.11V11.5102C18.11 14.8254 16.3726 17.5238 14.2415 17.5238H3.87276C1.73739 17.5238 0 14.8254 0 11.5102V6.0136C0 2.69841 1.73739 0 3.87276 0H18.11V3.77778H3.87276C3.1624 3.77778 2.5633 4.79818 2.5633 6.0136Z" fill="white"/>
<path d="M23.4504 3.81406V7.30159H38.9971V10.2222H23.4504V13.7097C23.4504 13.7097 23.4504 13.737 23.4504 13.746H38.9971V17.5238H22.6844C21.6917 17.5238 20.8871 16.3084 20.8871 14.8118V2.71202C20.8914 1.21542 21.6959 0 22.6887 0H39.0014V3.77778H23.4547C23.4547 3.77778 23.4547 3.80045 23.4547 3.81406H23.4504Z" fill="white"/>
<path d="M57.3597 0V17.5193H55.0361C54.0048 17.5193 52.5241 16.9297 51.7068 15.6326L44.6887 4.46712C44.5946 4.31746 44.5261 4.18594 44.4662 4.0771C44.4106 3.96825 44.3763 3.89569 44.3378 3.85487V17.5193H41.7788V0H44.1025C45.2194 0 46.2207 0.648526 46.9953 1.88662L54.0133 13.0522C54.2487 13.424 54.5012 13.6417 54.7921 13.7143V0H57.3512H57.3597Z" fill="white"/>
<path d="M79.4025 7.30159V10.2222H73.8907C73.129 10.2222 72.5128 10.8753 72.5128 11.6825V17.5238H69.7569V11.6825C69.7569 10.8753 69.1407 10.2222 68.379 10.2222H62.8672V7.30159H68.379C69.1407 7.30159 69.7569 6.64852 69.7569 5.84127V0H72.5128V5.84127C72.5128 6.64852 73.129 7.30159 73.8907 7.30159H79.4025Z" fill="white"/>
</svg>
